# xmcd
#
# Track frame offsets:
#  150
#  26694
#  42343
#  60078
#  80949
#  123738
#  147791
#  163887
#  184578
#  206503
#  212047
#
# Disc length: 3130 seconds
#
# Revision: 0
# Processed by: cddbd v1.5.1PL0 Copyright (c) Steve Scherf et al.
# Submitted via: Collectorz.com_Music_Collector 6.9
#
DISCID=9e0c380b
DTITLE=Jerry Douglas - The best kept secret
DYEAR=2005
DGENRE=
TTITLE0=Jerry Douglas with Derek Trucks - She makes me want to sing
TTITLE1=Jerry Douglas with Sam Bush and Béla Fleck - Who's your uncle?
TTITLE2=Jerry Douglas with Alison Krauss - Back in love again
TTITLE3=A remark you made
TTITLE4=The best kept secret
TTITLE5=Jerry Douglas with Bill Frisell - 'Lil roro
TTITLE6=Jerry Douglas with John Fogerty - Swing blues no.1
TTITLE7=Snow's first fall
TTITLE8=Ya ya etc.
TTITLE9=U r my flower
TTITLE10=Sir aly b
EXTD=
EXTT0=
EXTT1=
EXTT2=
EXTT3=
EXTT4=
EXTT5=
EXTT6=
EXTT7=
EXTT8=
EXTT9=
EXTT10=
PLAYORDER=
